<?xml version="1.0" encoding="UTF-8" standalone="no"?>
<!-- Created with Inkscape (http://www.inkscape.org/) -->

<svg
   version="1.1"
   id="svg1"
   width="523.33331"
   height="290.58334"
   viewBox="0 0 523.33331 290.58334"
   sodipodi:docname="logobranca.png"
   xmlns:inkscape="http://www.inkscape.org/namespaces/inkscape"
   xmlns:sodipodi="http://sodipodi.sourceforge.net/DTD/sodipodi-0.dtd"
   xmlns="http://www.w3.org/2000/svg"
   xmlns:svg="http://www.w3.org/2000/svg">
  <defs
     id="defs1" />
  <sodipodi:namedview
     id="namedview1"
     pagecolor="#ffffff"
     bordercolor="#000000"
     borderopacity="0.25"
     inkscape:showpageshadow="2"
     inkscape:pageopacity="0.0"
     inkscape:pagecheckerboard="0"
     inkscape:deskcolor="#d1d1d1" />
  <g
     inkscape:groupmode="layer"
     inkscape:label="Image"
     id="g1">
    <path
       style="display:inline;fill:#020202"
       d="m 464.96453,290.49622 c -6.77918,-0.46764 -12.76057,-3.03542 -16.63078,-7.13951 -3.51467,-3.72705 -5.86675,-9.18609 -6.59865,-15.31503 -0.16238,-1.35982 -0.13483,-4.81057 0.0492,-6.16667 0.61733,-4.54813 2.1688,-8.68193 4.66014,-12.41667 4.25193,-6.37404 10.9619,-9.95833 18.6425,-9.95833 6.76464,0 13.08412,1.92605 17.64868,5.37895 4.50216,3.40571 7.529,8.29836 8.68207,14.03392 0.44617,2.21936 0.53101,3.14988 0.53601,5.8788 0.005,2.55477 -0.0554,3.40164 -0.37829,5.33333 -0.85924,5.14032 -3.20855,9.92973 -6.57536,13.40484 -2.98812,3.08424 -6.46377,5.01733 -11.02345,6.13102 -3.00676,0.7344 -6.1935,1.02978 -9.01211,0.83535 z m 4.45212,-8.58822 c 6.18756,-0.80256 10.50582,-4.334 12.46345,-10.1925 0.76167,-2.27941 1.06253,-4.16913 1.06253,-6.67382 0,-3.39228 -0.65331,-6.28714 -2.04027,-9.04058 -0.83507,-1.6578 -1.53307,-2.63197 -2.77729,-3.87616 -1.16055,-1.16052 -2.07983,-1.83583 -3.44239,-2.52881 -2.19924,-1.11849 -4.39004,-1.6452 -7.22736,-1.73759 -4.81933,-0.15693 -8.86423,1.30305 -11.8318,4.27062 -2.43079,2.43079 -4.06718,5.86463 -4.68248,9.82577 -0.17871,1.15052 -0.20188,4.41479 -0.0405,5.71175 0.97612,7.84688 5.62375,12.9595 12.84948,14.13505 1.68282,0.27377 4.03513,0.31789 5.66667,0.10627 z m -250.2493,8.21496 c -5.50911,-0.62591 -10.0781,-2.7334 -13.90676,-6.41462 -3.43464,-3.30237 -5.79695,-7.80305 -6.79651,-12.94872 -1.18191,-6.0844 -0.60853,-12.01902 1.65388,-17.1179 3.23737,-7.2962 8.75301,-11.75463 16.46536,-13.30936 5.43049,-1.09473 10.88752,-0.75738 15.5561,0.96166 1.13795,0.41901 3.48393,1.58264 4.50784,2.23593 3.97612,2.53693 6.80536,6.00923 8.65877,10.62684 1.87478,4.67082 2.45316,9.88958 1.68659,15.21822 -0.80005,5.56143 -3.24472,10.56224 -6.98759,14.2938 -3.57962,3.5688 -7.93208,5.61206 -13.59433,6.38185 -1.36321,0.18534 -5.85393,0.23016 -7.24335,0.0723 z m 4.99931,-3.37663 c 7.11871,-0.50293 12.26959,-3.3848 15.85746,-8.8721 3.21044,-4.91007 4.37863,-10.8844 3.34742,-17.11933 -0.68476,-4.14023 -2.08145,-7.44736 -4.31332,-10.21322 -0.75722,-0.9384 -2.44169,-2.54832 -3.47491,-3.32113 -4.60915,-3.44747 -10.10724,-4.67006 -16.70832,-3.71538 -4.63264,0.66999 -8.06298,2.25265 -10.96701,5.05986 -1.74455,1.68638 -2.81596,3.17434 -3.98931,5.54028 -1.08985,2.19754 -1.73379,4.2691 -2.14322,6.8947 -0.1887,1.21012 -0.21426,5.6168 -0.0406,7 0.65337,5.20413 2.6013,9.41561 5.96956,12.90633 4.1471,4.2979 9.81739,6.30944 16.46225,5.83999 z m 205.94402,2.7515 c -1.26117,-0.13285 -1.97199,-0.69392 -3.21853,-2.54051 -0.75957,-1.12519 -23.63372,-30.53407 -23.75256,-30.53824 -0.0378,-0.001 -0.0597,7.33483 -0.0487,16.30255 l 0.02,16.30496 -0.22675,0.19504 -0.22675,0.19505 h -4.18515 c -3.65301,0 -4.20869,-0.0165 -4.37035,-0.12973 l -0.18521,-0.12972 v -24.22935 c 0,-19.65571 0.0203,-24.25711 0.10753,-24.3764 0.0997,-0.13641 0.35557,-0.147 3.53445,-0.1463 3.24684,7.1e-4 3.44372,0.009 3.74664,0.16515 0.17584,0.0904 0.41794,0.27097 0.53799,0.40121 0.12005,0.13024 2.80338,3.51805 5.96295,7.52847 11.06397,14.04339 17.12891,21.71045 17.36865,21.95673 l 0.24179,0.2484 v -14.93125 -14.93125 l 0.19358,-0.22506 0.19359,-0.22505 4.28558,0.0128 c 4.24508,0.0127 4.28696,0.0145 4.43142,0.18797 0.13815,0.16591 0.14577,1.44375 0.1446,24.27007 -9.8e-4,19.23208 -0.0224,24.13698 -0.10641,24.30327 -0.10392,0.20585 -0.12152,0.20899 -1.47793,0.26334 -0.75502,0.0303 -1.59776,0.0721 -1.87276,0.0929 -0.275,0.0208 -0.76894,0.01 -1.09764,-0.0251 z m -393.325793,-0.0821 c -0.141228,-0.044 -0.321718,-0.15168 -0.401089,-0.23938 -0.136197,-0.1505 -0.143873,-1.51195 -0.136506,-24.21088 0.0047,-14.52125 0.03837,-24.13179 0.08493,-24.25426 0.154984,-0.40764 0.01336,-0.40345 11.876107,-0.35156 11.836187,0.0518 11.989344,0.0571 13.791667,0.4783 4.536557,1.06025 8.047973,3.86128 10.039844,8.00872 0.576694,1.20078 1.14361,2.90152 1.412215,4.23662 1.130942,5.62135 -0.583675,11.39156 -4.506769,15.16667 -2.323892,2.23623 -4.877687,3.45048 -8.544991,4.06289 -0.777052,0.12976 -1.767868,0.14348 -10.428303,0.14441 l -9.56967,10e-4 -0.201163,0.23382 -0.201163,0.23381 v 8.07869 c 0,9.42008 0.123323,8.41202 -1.029093,8.41202 -0.382668,0 -0.973293,0.0178 -1.3125,0.0395 -0.339207,0.0217 -0.73229,0.004 -0.873518,-0.0404 z m 21.840111,-20.41337 c 2.229417,-0.10525 3.178316,-0.32227 4.766269,-1.09009 2.138021,-1.0338 4.280152,-3.20976 5.355445,-5.44002 0.830883,-1.72333 1.1639,-3.2122 1.228129,-5.49078 0.07012,-2.48761 -0.206482,-4.13701 -1.014999,-6.05249 -0.778894,-1.8453 -2.375896,-3.81956 -3.969261,-4.90693 -1.738809,-1.18662 -3.762308,-1.88611 -6.073917,-2.09966 -1.309439,-0.12096 -18.129494,-0.12244 -18.476077,-0.002 -0.138022,0.0481 -0.293618,0.18113 -0.345769,0.29559 -0.06949,0.15251 -0.09482,3.45759 -0.09482,12.37085 0,12.05164 0.0015,12.16427 0.166667,12.32942 0.164492,0.16449 0.275676,0.16662 8.520833,0.16357 4.594792,-0.002 9.066666,-0.0367 9.9375,-0.0778 z m 24.167533,20.36781 c -0.600754,-0.20653 -0.69402,-0.53201 -0.543351,-1.89615 0.07994,-0.72376 0.09673,-6.04156 0.07502,-23.76573 -0.02211,-18.05167 -0.0063,-22.872 0.07533,-23.018 0.214756,-0.38393 0.152409,-0.3822 11.892131,-0.32928 11.804319,0.0532 12.121379,0.064 13.973719,0.47508 5.89403,1.30805 10.26948,5.84394 11.50054,11.92221 0.17126,0.84555 0.19206,1.17903 0.18922,3.03333 -0.003,1.93499 -0.0191,2.15763 -0.2258,3.12678 -1.13221,5.30736 -4.3739,9.1055 -9.19741,10.7762 -1.54876,0.53644 -3.93968,0.96232 -5.48976,0.97787 -0.32111,0.003 -0.64692,0.0314 -0.72401,0.0625 -0.13296,0.0537 2.99567,3.47627 15.15388,16.57748 l 1.95271,2.10417 h -2.35951 c -2.09129,0 -2.38944,-0.0166 -2.62283,-0.14584 -0.21507,-0.11911 -8.53786,-9.12065 -15.10875,-16.34093 -1.11912,-1.22971 -1.553896,-1.64988 -1.870534,-1.80767 l -0.412523,-0.20556 h -6.316971 c -6.20586,0 -6.319902,0.003 -6.483637,0.16666 -0.09167,0.0917 -0.169875,0.25104 -0.173797,0.35417 -0.0039,0.10312 -0.0133,4.11453 -0.02083,8.91424 -0.01352,8.60892 -0.01595,8.7289 -0.18037,8.88619 -0.144815,0.13854 -0.336052,0.16515 -1.458569,0.20293 -0.971259,0.0327 -1.374301,0.0152 -1.623897,-0.0707 z m 21.627729,-22.03254 c 3.81405,-0.19322 6.22005,-1.0855 8.21343,-3.046 1.58787,-1.56168 2.51085,-3.39423 3.04991,-6.05552 0.25908,-1.27907 0.27865,-4.12679 0.036,-5.23615 -1.00322,-4.58624 -4.33318,-7.87503 -8.95435,-8.84369 -1.32315,-0.27734 -2.81823,-0.31833 -11.698813,-0.32071 -8.717699,-0.002 -8.817152,0.001 -8.943781,0.32152 -0.02926,0.074 -0.04934,5.27205 -0.04463,11.55121 l 0.0086,11.41667 0.174279,0.14583 c 0.163452,0.13678 0.687531,0.14568 8.43588,0.14337 4.543881,-10e-4 8.919475,-0.0358 9.723535,-0.0765 z m 38.67385,22.08076 c -0.15448,-0.0375 -0.35373,-0.14101 -0.44276,-0.23004 -0.15958,-0.15958 -0.16178,-0.50422 -0.15406,-24.19367 0.007,-21.36399 0.0219,-24.05327 0.13462,-24.22531 0.16639,-0.25394 0.38447,-0.32958 1.28219,-0.4447 1.4877,-0.19079 2.69437,0.20589 3.69247,1.21385 0.53905,0.54438 0.67205,0.74102 4.2578,6.29477 3.90767,6.05235 13.79285,21 13.88772,21 0.0361,0 0.19318,-0.17812 0.34911,-0.39583 0.28524,-0.39826 8.4814,-12.98129 14.56074,-22.35417 1.79854,-2.77291 3.351,-5.1296 3.4499,-5.23708 0.39094,-0.42485 0.52481,-0.44773 2.62599,-0.44883 1.93062,-0.001 1.96321,0.002 2.11195,0.18553 0.14519,0.17931 0.15023,1.12364 0.1298,24.30902 l -0.0213,24.12246 -0.24664,0.21215 c -0.24402,0.20989 -0.2586,0.2117 -1.375,0.17051 -1.22586,-0.0452 -1.66121,-0.16148 -1.85082,-0.4942 -0.0912,-0.16 -0.11828,-3.99116 -0.15254,-21.56956 l -0.0417,-21.375 -0.3828,0.5123 c -0.21054,0.28176 -4.29444,6.48801 -9.07534,13.79166 -4.7809,7.30366 -8.81916,13.45471 -8.97392,13.66901 -0.17036,0.23591 -0.42554,0.45942 -0.64682,0.56654 -0.33368,0.16154 -0.3896,0.16656 -0.64328,0.0578 -0.15281,-0.0655 -0.397,-0.24546 -0.54264,-0.39988 -0.14564,-0.15442 -4.19772,-6.24327 -9.00462,-13.53077 -4.80691,-7.2875 -8.96275,-13.58376 -9.23521,-13.99168 l -0.49537,-0.74168 -0.0417,21.60321 -0.0417,21.60321 -0.19673,0.15931 c -0.17032,0.1379 -0.33819,0.15945 -1.25,0.16043 -0.5793,6.3e-4 -1.12827,0.0164 -1.21994,0.035 -0.0917,0.0186 -0.29306,0.003 -0.44755,-0.0343 z m -14.1458,-0.0756 c -0.48889,-0.0847 -0.75926,-0.29043 -0.86038,-0.65456 -0.11986,-0.43159 -0.123,-47.8004 -0.003,-48.02427 0.14351,-0.26816 0.6377,-0.34109 1.76358,-0.26027 1.1996,0.0861 1.42439,0.15937 1.62684,0.53017 0.14322,0.26232 0.14982,1.32702 0.14982,24.16793 v 23.89352 l -0.18958,0.18981 c -0.17387,0.17408 -0.2706,0.19095 -1.16667,0.2035 -0.53739,0.008 -1.13159,-0.0131 -1.32043,-0.0458 z m 145.87609,-0.0833 -0.19941,-0.16148 -0.0213,-24.12722 -0.0213,-24.12723 0.18953,-0.22035 0.18954,-0.22035 12.04005,0.009 c 7.09519,0.005 12.43364,0.0429 12.99839,0.0911 5.80321,0.49602 9.93304,2.9554 13.0784,7.78838 2.9888,4.59241 3.54716,9.72357 1.6621,15.27415 -2.15076,6.33295 -6.71515,10.13034 -13.347,11.10417 -2.17313,0.3191 -3.56752,0.36497 -10.49973,0.34536 l -6.64789,-0.0188 -0.20627,0.20628 -0.20628,0.20627 v 6.82119 c 0,5.7585 -0.0184,6.8464 -0.11824,6.98296 -0.11401,0.15596 -0.27185,0.16258 -4.40475,0.18476 -4.13478,0.0222 -4.29357,0.0173 -4.48593,-0.13846 z m 25.08987,-22.87342 c 0.79727,-0.17263 1.59903,-0.43679 2.12738,-0.7009 2.66552,-1.33248 4.625,-4.60614 4.625,-7.72689 0,-1.26381 -0.35036,-2.73561 -0.95613,-4.01646 -1.32114,-2.79347 -3.48386,-4.33261 -6.58752,-4.68815 -0.45496,-0.0521 -3.53123,-0.086 -7.85218,-0.0864 -6.99352,-6.7e-4 -7.10676,0.002 -7.27083,0.16598 -0.16447,0.16447 -0.16667,0.27778 -0.16667,8.57861 v 8.41194 l 0.1875,0.13461 c 0.17021,0.12219 0.88293,0.13128 7.72917,0.0985 6.54314,-0.0313 7.6241,-0.0539 8.16428,-0.1709 z m 22.25238,22.86388 c -0.1659,-0.1659 -0.16666,-0.27778 -0.16666,-24.3241 0,-22.88469 0.008,-24.16668 0.14583,-24.3329 0.14457,-0.17395 0.18283,-0.17556 4.42438,-0.18671 4.09747,-0.0108 4.28522,-0.005 4.43655,0.14676 0.15435,0.15436 0.1582,0.71641 0.16647,24.32115 l 0.008,24.16315 -0.22049,0.18966 -0.2205,0.18966 h -4.20368 c -4.09258,0 -4.20809,-0.004 -4.37036,-0.16667 z m 12.83334,0.10606 c 0,-0.0647 0.60834,-1.42314 7.60453,-16.98106 4.07409,-9.05984 11.93226,-26.58236 13.41647,-29.91667 0.32643,-0.73333 0.66445,-1.43702 0.75115,-1.56376 0.3406,-0.49782 0.21476,-0.48638 5.35125,-0.48638 3.71065,0 4.73581,0.0228 4.87549,0.1084 0.22718,0.13924 -0.17357,-0.73156 5.86011,12.73341 2.86505,6.39375 7.65161,17.0625 10.63681,23.70833 2.98519,6.64584 5.4467,12.15888 5.47001,12.25121 0.0421,0.16679 0.0125,0.16786 -4.56588,0.16552 l -4.60828,-0.002 -0.39593,-0.19384 c -0.68621,-0.33595 -0.94292,-0.73866 -1.68108,-2.6372 -0.76446,-1.96618 -2.60547,-5.88696 -2.8858,-6.14584 l -0.24815,-0.22916 -12.51952,3.1e-4 c -12.06481,3e-4 -12.52876,0.006 -12.77405,0.15553 -0.22019,0.13427 -0.51178,0.72185 -2.16063,4.35385 -1.04835,2.30925 -1.95816,4.28021 -2.0218,4.3799 -0.0636,0.0997 -0.23132,0.22158 -0.37264,0.27084 -0.29298,0.10213 -9.73206,0.13023 -9.73206,0.029 z m 35.81666,-17.87273 c 0.055,-0.055 0.1,-0.18954 0.1,-0.29898 0,-0.10945 -0.48407,-1.29257 -1.07572,-2.62917 -0.59164,-1.3366 -2.56363,-5.84268 -4.38219,-10.01351 -1.81856,-4.17084 -3.33483,-7.61305 -3.36948,-7.64937 -0.0346,-0.0363 -0.10054,-0.0176 -0.14641,0.0417 -0.0459,0.0592 -1.10654,2.45145 -2.35703,5.31603 -1.2505,2.86458 -3.22513,7.3718 -4.38806,10.01603 -1.16294,2.64424 -2.11444,4.89736 -2.11444,5.00695 0,0.10958 0.025,0.22424 0.0556,0.2548 0.0306,0.0306 3.99805,0.0556 8.81666,0.0556 6.70309,0 8.7846,-0.0235 8.86111,-0.1 z M 25.166666,187.96596 c 0,-0.0187 5.284129,-6.75935 11.742509,-14.97917 l 11.742509,-14.94512 -18.002875,-0.0417 -18.002875,-0.0417 11.718699,-14.91489 c 6.445284,-8.20319 11.718699,-14.94381 11.718699,-14.97917 0,-0.0353 -8.084375,-0.0643 -17.965277,-0.0643 -9.8809025,0 -17.95277723,-0.0307 -17.93749945,-0.0683 C 0.19583333,127.89415 22.799383,99.112898 50.410666,63.973375 L 100.613,0.08333334 h 196.65669 196.6567 l -0.3706,0.47916668 C 493.35195,0.8260417 488.24914,7.3229169 482.21621,15.000001 l -10.96898,13.958333 18.67257,0.04167 18.67257,0.04167 -11.33786,14.429929 c -6.23582,7.936461 -11.33786,14.452004 -11.33786,14.478984 0,0.02698 8.39264,0.05851 18.65032,0.07007 l 18.65032,0.02102 -51.04615,64.976023 -51.04616,64.97603 -197.97916,0.003 c -108.88853,0.002 -197.979154,-0.0122 -197.979154,-0.0309 z m 443.063984,-64.98679 48.5996,-61.854168 -16.67718,-0.02104 c -10.22464,-0.0129 -16.71283,0.009 -16.7693,0.05667 -0.0507,0.04274 -17.19212,21.847207 -38.09212,48.454378 l -38,48.37667 -177.33333,0.008 -177.333322,0.008 -10.041666,12.78996 c -5.522917,7.03447 -10.260028,13.07013 -10.526913,13.41256 l -0.485247,0.62261 H 225.60111 419.63105 Z M 61.223285,142.0416 c 5.995942,-7.63129 10.914212,-13.91254 10.92949,-13.95834 0.01844,-0.0553 -5.582587,-0.0822 -16.666666,-0.0802 l -16.694444,0.003 -10.833333,13.79044 c -5.958333,7.58474 -10.884782,13.86459 -10.947664,13.95522 -0.11378,0.164 -0.03385,0.16479 16.598287,0.16479 H 50.321573 Z M 443.40762,108.66654 c 20.41379,-25.985577 37.16904,-47.322261 37.23389,-47.414854 l 0.11792,-0.168351 h -17.37668 -17.37668 l -26.27388,33.453096 -26.27387,33.453099 -158.625,0.007 -158.62499,0.007 -10.874999,13.84309 c -5.98125,7.6137 -10.904988,13.89404 -10.941641,13.95633 -0.05615,0.0954 27.634554,0.11295 175.91666,0.11142 l 175.9833,-0.002 z M 75.453892,78.020836 113.93744,29.041668 l 178.00871,-0.04167 178.00872,-0.04167 10.89755,-13.869081 c 5.99366,-7.627995 10.89756,-13.8998702 10.89756,-13.9375007 0,-0.03763 -87.89199,-0.068419 -195.31553,-0.068419 H 101.11893 L 51.705297,63.97039 C 24.5278,98.55827 2.2791666,126.88952 2.2638888,126.92873 2.2485562,126.96807 10.01701,127 19.603229,127 h 17.367118 z m 24.694978,14.479161 27.10721,-34.499995 h 159.94063 159.94063 l 10.32715,-13.140673 c 5.67994,-7.227371 10.43353,-13.283621 10.56353,-13.458334 l 0.23638,-0.317661 H 291.61135 114.9583 L 77.333317,78.967345 C 56.639575,105.30355 39.695832,126.8848 39.680554,126.92568 39.664338,126.96907 46.601412,127 56.34722,127 l 16.694444,-1e-5 z m 318.58001,1.666673 c 14.17553,-18.035417 25.81192,-32.857293 25.85866,-32.937501 0.0809,-0.138868 -7.45902,-0.145786 -157.85545,-0.144832 l -157.94043,0.001 -25.83333,32.880128 C 88.749997,112.04954 77.112494,126.88035 77.097212,126.92282 c -0.01705,0.0474 60.971718,0.0692 157.915098,0.0564 l 157.94289,-0.0208 z m 75.04194,-49.604168 10.55428,-13.437501 -17.34797,-0.02103 -17.34797,-0.02103 -0.17957,0.187697 c -0.24835,0.259583 -20.94961,26.626843 -20.94961,26.683585 0,0.02518 7.81123,0.04578 17.35828,0.04578 h 17.35828 z"
       id="path2"
       inkscape:label="path2" />
  </g>
</svg>
