<?xml version="1.0" encoding="UTF-8" standalone="no"?>
<!-- Created with Inkscape (http://www.inkscape.org/) -->

<svg
   version="1.1"
   id="svg1"
   width="523.33331"
   height="188"
   viewBox="0 0 523.33331 188"
   sodipodi:docname="simbolobranco.png"
   xmlns:inkscape="http://www.inkscape.org/namespaces/inkscape"
   xmlns:sodipodi="http://sodipodi.sourceforge.net/DTD/sodipodi-0.dtd"
   xmlns="http://www.w3.org/2000/svg"
   xmlns:svg="http://www.w3.org/2000/svg">
  <defs
     id="defs1" />
  <sodipodi:namedview
     id="namedview1"
     pagecolor="#ffffff"
     bordercolor="#000000"
     borderopacity="0.25"
     inkscape:showpageshadow="2"
     inkscape:pageopacity="0.0"
     inkscape:pagecheckerboard="0"
     inkscape:deskcolor="#d1d1d1" />
  <g
     inkscape:groupmode="layer"
     inkscape:label="Image"
     id="g1">
    <path
       style="fill:#030303"
       d="m 25.481264,187.47917 c 2.558073,-3.2316 23.102067,-29.41237 23.102067,-29.44072 0,-0.0209 -8.095353,-0.0475 -17.989673,-0.0591 l -17.989674,-0.021 11.73689,-14.9375 11.736889,-14.9375 H 18.073604 c -11.509975,0 -17.99413998,-0.0289 -17.97638178,-0.0803 C 0.1125,127.9589 22.718749,99.161248 50.333331,64.008273 L 100.54166,0.09377386 297.22916,0.08855359 c 108.17812,-0.0028711 196.68749,0.01199914 196.68749,0.03304508 0,0.0210459 -5.09874,6.52721393 -11.33052,14.45815133 l -11.33052,14.419885 18.68925,0.02102 18.68925,0.02102 -11.32753,14.416666 -11.32752,14.416667 18.67267,0.04167 18.67267,0.04167 L 472.23661,122.97917 421.14882,188 H 223.1089 25.068982 Z M 468.18084,123 c 26.70743,-33.985417 48.56125,-61.819792 48.56405,-61.854167 0.003,-0.03438 -7.48554,-0.0625 -16.64076,-0.0625 H 483.45829 L 445.3839,109.54167 407.30952,158 H 229.99998 52.690446 l -10.491057,13.34839 c -5.770081,7.34161 -10.50356,13.37912 -10.518841,13.41668 -0.01528,0.0376 87.265262,0.0589 193.956772,0.0474 l 193.98455,-0.0208 z M 61.166664,142.06911 c 5.98125,-7.61395 10.8875,-13.87554 10.902778,-13.91466 0.01528,-0.0391 -7.465173,-0.0711 -16.628292,-0.0711 H 38.78508 l -10.871707,13.83666 c -5.979439,7.61016 -10.884207,13.87266 -10.899485,13.91666 -0.01769,0.051 6.019279,0.0793 16.625,0.078 l 16.652777,-0.002 z M 443.43233,108.57846 c 20.45596,-26.036013 37.20515,-47.373513 37.22043,-47.416666 0.0173,-0.0489 -6.49785,-0.07808 -17.29167,-0.07745 l -17.31944,10e-4 -26.31839,33.498988 -26.31839,33.498988 H 234.80044 76.195997 L 65.327164,141.9168 c -5.977858,7.60842 -10.881333,13.87092 -10.896611,13.91667 -0.01848,0.0553 58.853887,0.0832 175.890677,0.0832 H 406.23969 Z M 75.461273,77.958333 113.92859,29 h 177.97646 177.97646 l 9.96832,-12.6875 C 485.33241,9.334375 490.25323,3.071875 490.785,2.3958333 l 0.96684,-1.2291666 H 296.42352 101.0952 L 51.776767,63.930612 C 24.651629,98.450782 2.4283449,126.74453 2.3916924,126.80561 c -0.055432,0.0924 2.8490717,0.11106 17.2678096,0.11106 h 17.33445 z m 24.711327,14.458334 27.10696,-34.5 H 287.21987 447.16019 L 457.54999,44.6875 c 5.71439,-7.276042 10.44666,-13.294792 10.51615,-13.375 0.12032,-0.138883 -8.29199,-0.145833 -176.50266,-0.145833 H 114.93449 L 77.40104,78.9375 c -20.643397,26.27396 -37.56212,47.81771 -37.597163,47.875 -0.05089,0.0832 3.290407,0.10417 16.599023,0.10417 h 16.662738 z m 318.57738,1.664544 c 14.18542,-18.057234 25.80417,-32.868807 25.81945,-32.914606 0.0185,-0.05545 -52.71383,-0.08327 -157.85107,-0.08327 H 128.83952 l -25.77905,32.8125 C 88.881992,111.94271 77.253385,126.75521 77.219123,126.8125 c -0.04983,0.0833 31.539747,0.10375 157.838447,0.10211 l 157.90075,-0.002 z m 74.84129,-49.352044 c 5.69325,-7.253125 10.42705,-13.271875 10.51956,-13.375 l 0.1682,-0.1875 -17.36869,0.002 -17.36869,0.002 -10.41667,13.259768 c -5.72916,7.292873 -10.44665,13.310722 -10.4833,13.372998 -0.0561,0.09527 2.6828,0.11323 17.2658,0.11323 h 17.33244 z"
       id="path2" />
  </g>
</svg>
